<?xml version="1.0" standalone="no"?>
<!DOCTYPE svg PUBLIC "-//W3C//DTD SVG 20010904//EN"
 "http://www.w3.org/TR/2001/REC-SVG-20010904/DTD/svg10.dtd">
<svg version="1.0" xmlns="http://www.w3.org/2000/svg"
 width="500.000000pt" height="102.000000pt" viewBox="0 0 500.000000 102.000000"
 preserveAspectRatio="xMidYMid meet">

<g transform="translate(0.000000,102.000000) scale(0.100000,-0.100000)"
fill="#000000" stroke="none">
<path d="M934 907 c-6 -17 -36 -30 -104 -47 -52 -14 -76 -32 -84 -66 -4 -15
-14 -24 -27 -24 -38 0 -79 -30 -113 -84 -19 -30 -44 -57 -54 -61 -19 -5 -19
-8 -6 -33 10 -19 12 -44 8 -83 -6 -57 12 -114 39 -125 8 -3 11 -21 9 -52 -3
-43 1 -52 38 -96 23 -27 44 -62 46 -76 5 -22 10 -26 33 -22 14 2 50 -6 79 -17
62 -25 91 -26 118 -6 17 13 16 13 -17 3 -30 -9 -43 -7 -84 11 -26 11 -62 21
-80 21 -27 0 -34 5 -39 25 -3 13 -19 39 -35 57 -42 50 -54 76 -47 113 5 27 2
38 -19 59 -14 14 -25 35 -26 48 -2 89 -6 135 -12 149 -5 11 0 19 16 28 14 7
34 30 46 52 28 49 66 79 102 79 16 0 29 5 29 11 0 32 41 66 94 78 31 7 66 21
78 31 20 16 25 17 39 4 9 -8 47 -24 84 -37 54 -17 72 -28 85 -52 11 -20 27
-32 49 -36 39 -8 65 -31 93 -80 11 -20 31 -43 45 -50 16 -9 21 -18 17 -28 -4
-9 -10 -53 -13 -98 -5 -65 -10 -86 -28 -105 -15 -16 -20 -31 -17 -46 9 -34 -3
-66 -41 -112 -19 -23 -38 -52 -41 -65 -5 -18 -14 -24 -47 -28 -23 -2 -62 -13
-88 -22 -42 -17 -47 -17 -79 -2 -18 10 -35 15 -38 13 -7 -8 56 -36 81 -36 14
0 44 9 68 20 24 11 58 20 75 20 25 0 33 5 38 24 3 14 24 46 47 72 37 43 40 51
37 95 -2 32 1 50 9 53 27 11 45 68 39 125 -4 39 -2 64 8 83 13 25 13 28 -5 33
-11 4 -32 25 -46 48 -44 68 -65 87 -105 93 -21 4 -38 12 -38 19 0 31 -42 64
-95 75 -31 6 -68 23 -85 37 -24 20 -31 22 -36 10z"/>
<path d="M1560 480 l0 -210 40 0 40 0 0 74 0 73 56 7 c107 12 150 57 142 148
-9 88 -60 118 -200 118 l-78 0 0 -210z m173 128 c9 -7 19 -25 22 -40 10 -38
-31 -78 -80 -78 l-35 0 0 65 0 65 38 0 c21 0 46 -6 55 -12z"/>
<path d="M1930 480 l0 -210 40 0 40 0 0 74 0 73 54 6 c102 10 146 53 146 141
0 33 -6 52 -26 75 -31 38 -77 51 -176 51 l-78 0 0 -210z m180 120 c20 -20 26
-56 12 -76 -12 -19 -49 -34 -81 -34 l-31 0 0 65 0 65 40 0 c27 0 47 -7 60 -20z"/>
<path d="M2300 480 l0 -213 98 6 c102 5 158 24 194 64 64 70 64 219 1 286 -47
49 -80 60 -190 65 l-103 5 0 -213z m222 101 c24 -27 28 -40 28 -92 0 -35 -7
-73 -16 -90 -17 -35 -67 -59 -119 -59 l-35 0 0 141 0 141 57 -4 c48 -4 61 -10
85 -37z"/>
<path d="M2730 480 l0 -210 88 0 c152 0 210 30 219 113 5 44 3 50 -28 79 l-34
32 29 28 c25 25 28 34 23 69 -3 22 -13 49 -22 59 -22 25 -97 40 -195 40 l-80
0 0 -210z m191 130 c12 -7 19 -21 19 -40 0 -36 -23 -50 -79 -50 l-41 0 0 50 0
50 41 0 c22 0 49 -5 60 -10z m14 -170 c23 -19 19 -66 -7 -84 -12 -9 -42 -16
-65 -16 l-43 0 0 61 0 62 50 -5 c27 -3 56 -11 65 -18z"/>
<path d="M3314 671 c-37 -22 -59 -76 -49 -120 8 -36 41 -68 113 -106 49 -26
57 -34 60 -62 3 -28 -1 -33 -23 -39 -26 -7 -91 -1 -132 12 -21 6 -23 3 -23
-30 0 -45 23 -56 113 -56 75 0 122 24 142 75 29 69 0 118 -104 174 -60 32 -75
49 -64 77 10 27 48 34 102 20 l50 -13 11 30 c5 17 10 31 10 33 0 1 -14 7 -31
13 -51 18 -140 14 -175 -8z"/>
<path d="M3610 480 l0 -210 35 0 35 0 2 167 3 166 50 -164 50 -164 39 0 39 0
56 165 56 165 3 -167 2 -168 35 0 35 0 0 210 0 211 -57 -3 -56 -3 -51 -152
c-28 -83 -54 -154 -57 -157 -3 -3 -28 66 -55 154 l-49 160 -57 0 -58 0 0 -210z"/>
<path d="M4160 480 l0 -210 45 0 45 0 0 78 c0 65 3 79 19 89 18 11 25 4 76
-77 l57 -90 44 0 c24 0 44 2 44 5 0 2 -31 54 -70 115 -38 61 -70 112 -70 114
0 1 31 43 70 92 l69 89 -42 3 c-47 4 -58 -6 -150 -131 l-42 -58 -3 96 -3 95
-44 0 -45 0 0 -210z"/>
</g>
</svg>
